<svg width="552" height="97" viewBox="0 0 552 97" fill="none" xmlns="http://www.w3.org/2000/svg">
<path d="M486.744 1.85687H552V12.2023H524.943V94.7007H513.801V12.2023H486.744V1.85687Z" fill="#A7A7A7"/>
<path d="M456.331 89.9259H457.922V1.85687H469.063V94.7007H446.781L419.989 6.63171H418.397V94.7007H407.256V1.85687H429.538L456.331 89.9259Z" fill="#A7A7A7"/>
<path d="M246.688 1.85687H257.829V84.3552H306.373V94.7007H246.688V1.85687Z" fill="#A7A7A7"/>
<path d="M161.894 37.9333C161.894 25.9078 164.768 16.5792 170.515 9.94754C176.263 3.31584 184.265 0 194.522 0C204.779 0 212.782 3.31584 218.529 9.94754C224.277 16.5792 227.15 25.9078 227.15 37.9333V58.6242C227.15 71.0034 224.277 80.4204 218.529 86.8753C212.782 93.3301 204.779 96.5576 194.522 96.5576C184.265 96.5576 176.263 93.3301 170.515 86.8753C164.768 80.4204 161.894 71.0034 161.894 58.6242V37.9333ZM194.522 86.2121C201.685 86.2121 207.034 83.7805 210.571 78.9173C214.196 73.9656 216.009 66.936 216.009 57.8284V38.7291C216.009 30.2406 214.196 23.3878 210.571 18.1709C207.034 12.9539 201.685 10.3454 194.522 10.3454C187.36 10.3454 181.966 12.9539 178.341 18.1709C174.804 23.3878 173.036 30.2406 173.036 38.7291V57.8284C173.036 66.936 174.804 73.9656 178.341 78.9173C181.966 83.7805 187.36 86.2121 194.522 86.2121Z" fill="#A7A7A7"/>
<path d="M80.6819 37.9333C80.6819 25.9078 83.5556 16.5792 89.3031 9.94754C95.0506 3.31584 103.053 0 113.31 0C123.567 0 131.569 3.31584 137.317 9.94754C143.064 16.5792 145.938 25.9078 145.938 37.9333V58.6242C145.938 71.0034 143.064 80.4204 137.317 86.8753C131.569 93.3301 123.567 96.5576 113.31 96.5576C103.053 96.5576 95.0506 93.3301 89.3031 86.8753C83.5556 80.4204 80.6819 71.0034 80.6819 58.6242V37.9333ZM113.31 86.2121C120.472 86.2121 125.822 83.7805 129.359 78.9173C132.984 73.9656 134.797 66.936 134.797 57.8284V38.7291C134.797 30.2406 132.984 23.3878 129.359 18.1709C125.822 12.9539 120.472 10.3454 113.31 10.3454C106.148 10.3454 100.754 12.9539 97.1285 18.1709C93.5916 23.3878 91.8231 30.2406 91.8231 38.7291V57.8284C91.8231 66.936 93.5916 73.9656 97.1285 78.9173C100.754 83.7805 106.148 86.2121 113.31 86.2121Z" fill="#A7A7A7"/>
<path d="M32.628 86.2121C36.4302 86.2121 39.6576 85.5932 42.3102 84.3552C45.0514 83.0289 47.2619 81.3047 48.9419 79.1825C50.7104 76.9719 51.9926 74.4961 52.7884 71.755C53.6726 68.9255 54.1147 65.9633 54.1147 62.8685V61.2769H65.256V62.8685C65.256 67.5549 64.5486 71.9761 63.1338 76.1319C61.719 80.1994 59.6411 83.7805 56.9 86.8753C54.1589 89.8817 50.7546 92.2691 46.6872 94.0375C42.6198 95.7176 37.9333 96.5576 32.628 96.5576C22.3709 96.5576 14.3687 93.3301 8.62121 86.8753C2.87374 80.4204 0 71.0034 0 58.6242V37.9333C0 25.9078 2.87374 16.5792 8.62121 9.94754C14.3687 3.31584 22.3709 0 32.628 0C37.9333 0 42.6198 0.884223 46.6872 2.65268C50.7546 4.33271 54.1589 6.72012 56.9 9.81491C59.6411 12.8213 61.719 16.4024 63.1338 20.5583C64.5486 24.6257 65.256 29.0026 65.256 33.689V35.2806H54.1147V33.689C54.0263 30.6827 53.54 27.7647 52.6557 24.9352C51.8599 22.1057 50.5778 19.6298 48.8093 17.5077C47.1293 15.2971 44.9629 13.5729 42.3102 12.335C39.6576 11.0086 36.4302 10.3454 32.628 10.3454C25.4657 10.3454 20.072 12.9539 16.4466 18.1709C12.9097 23.3878 11.1413 30.2406 11.1413 38.7291V57.8284C11.1413 66.936 12.9097 73.9656 16.4466 78.9173C20.072 83.7805 25.4657 86.2121 32.628 86.2121Z" fill="#A7A7A7"/>
<path d="M394.462 94.7009H317.534V1.85715H394.462V94.7009ZM338.223 51.5945H347.029L334.777 72.8161H351.295V85.4167H360.58V72.8161H378.425L366.173 51.5945H374.98L356.601 9.81516L338.223 51.5945Z" fill="#A7A7A7"/>
</svg>
